# xmcd
#
# Track frame offsets:
#	150
#	21480
#	62557
#	91622
#	109672
#	147907
#	175172
#
# Disc length: 2743 seconds
#
# Revision: 3
# Processed by: cddbd v1.5.2PL0 Copyright (c) Steve Scherf et al.
# Submitted via: audiograbber 1.83.01
#
DISCID=540ab507
DTITLE=John Mayall - Behind The Iron Curtain
DYEAR=1991
DGENRE=Blues
TTITLE0=Somebody's Acting Like A Child
TTITLE1=Rolling With The Blues
TTITLE2=The Laws Must Change
TTITLE3=Parchman Farm
TTITLE4=Have You Heard
TTITLE5=Fly Tomorrow
TTITLE6=Steppin' Out
EXTD=
EXTT0=
EXTT1=
EXTT2=
EXTT3=
EXTT4=
EXTT5=
EXTT6=
PLAYORDER=
